Coordinates
version=1
nRows=65
nColumns=12
inDegrees=yes

Units are S.I. units (second, meters, Newtons, ...)
Angles are in degrees

endheader
time	SC_y	SC_z	SC_x	AC_y	AC_z	AC_x	GH_y	GH_z	GH_yy	EL_x	PS_y
       0.0              -38.45          26.18          1.564          68.76         -7.748         -3.547          58.33          9.844         -108.8           10.8          156.0
   0.04784              -38.45          26.17           1.57          68.76         -7.747         -3.545          58.31          9.851         -108.8          10.82          156.0
   0.09568              -38.45          26.17          1.578          68.76         -7.747         -3.544          58.28          9.859         -108.8          10.83          156.0
    0.1435              -38.45          26.17          1.585          68.75         -7.746         -3.542          58.26          9.868         -108.8          10.84          156.0
    0.1914              -38.45          26.17          1.593          68.75         -7.745         -3.539          58.23          9.877         -108.8          10.85          156.0
    0.2392              -38.46          26.17          1.602          68.75         -7.745         -3.537          58.19          9.886         -108.8          10.87          156.0
     0.287              -38.46          26.17          1.611          68.74         -7.744         -3.535          58.16          9.896         -108.8          10.88          156.0
    0.3349              -38.46          26.17          1.621          68.74         -7.743         -3.532          58.12          9.907         -108.8           10.9          155.9
    0.3827              -38.46          26.17          1.631          68.74         -7.742         -3.529          58.09          9.919         -108.8          10.92          155.9
    0.4306              -38.46          26.16          1.642          68.73         -7.741         -3.527          58.04          9.931         -108.8          10.94          155.9
    0.4784              -38.46          26.16          1.654          68.73          -7.74         -3.523           58.0          9.945         -108.8          10.96          155.9
    0.5263              -38.46          26.16          1.667          68.72         -7.739          -3.52          57.95          9.959         -108.8          10.98          155.9
    0.5741              -38.47          26.16          1.682          68.72         -7.737         -3.516           57.9          9.975         -108.8           11.0          155.9
    0.6219              -38.47          26.16          1.697          68.71         -7.736         -3.512          57.84          9.992         -108.8          11.03          155.9
    0.6698              -38.47          26.15          1.713          68.71         -7.735         -3.508          57.78          10.01         -108.8          11.06          155.9
    0.7176              -38.47          26.15          1.731           68.7         -7.733         -3.503          57.72          10.03         -108.8          11.09          155.9
    0.7655              -38.48          26.15           1.75          68.69         -7.731         -3.498          57.65          10.05         -108.8          11.12          155.9
    0.8133              -38.48          26.15          1.771          68.68         -7.729         -3.493          57.57          10.07         -108.8          11.15          155.9
    0.8611              -38.48          26.14          1.794          68.67         -7.727         -3.487          57.48           10.1         -108.8          11.19          155.9
     0.909              -38.49          26.14          1.819          68.67         -7.725          -3.48          57.39          10.13         -108.8          11.23          155.9
    0.9568              -38.49          26.14          1.847          68.65         -7.722         -3.473          57.29          10.16         -108.8          11.28          155.9
     1.005              -38.49          26.13          1.877          68.64          -7.72         -3.465          57.17          10.19         -108.8          11.33          155.9
     1.053               -38.5          26.13          1.911          68.63         -7.717         -3.456          57.05          10.23         -108.8          11.39          155.9
       1.1               -38.5          26.12          1.948          68.62         -7.713         -3.447          56.91          10.27         -108.8          11.45          155.8
     1.148              -38.51          26.12          1.989           68.6          -7.71         -3.436          56.76          10.32         -108.8          11.52          155.8
     1.196              -38.52          26.11          2.035          68.58         -7.705         -3.424          56.59          10.37         -108.8           11.6          155.8
     1.244              -38.52           26.1          2.087          68.56         -7.701          -3.41           56.4          10.43         -108.8          11.69          155.8
     1.292              -38.53          26.09          2.145          68.54         -7.695         -3.395          56.18          10.49         -108.8          11.78          155.8
      1.34              -38.54          26.08          2.211          68.52          -7.69         -3.378          55.94          10.56         -108.7          11.89          155.8
     1.387              -38.55          26.07          2.285          68.49         -7.683         -3.358          55.66          10.65         -108.7          12.02          155.7
     1.435              -38.56          26.06          2.371          68.46         -7.675         -3.336          55.35          10.74         -108.7          12.16          155.7
     1.483              -38.58          26.05          2.468          68.42         -7.666          -3.31          54.99          10.85         -108.7          12.33          155.7
     1.531              -38.59          26.03          2.581          68.38         -7.656         -3.281          54.57          10.97         -108.7          12.52          155.6
     1.579              -38.61          26.01          2.712          68.33         -7.644         -3.246          54.09          11.12         -108.7          12.74          155.6
     1.627              -38.63          25.99          2.865          68.27          -7.63         -3.206          53.52          11.29         -108.7          12.99          155.5
     1.674              -38.65          25.97          3.046           68.2         -7.614         -3.159          52.85          11.49         -108.6           13.3          155.5
     1.722              -38.68          25.93          3.261          68.12         -7.594         -3.103          52.05          11.73         -108.6          13.66          155.4
      1.77              -38.72           25.9          3.518          68.02         -7.571         -3.035           51.1          12.02         -108.6          14.09          155.3
     1.818              -38.76          25.85           3.83           67.9         -7.543         -2.954          49.95          12.36         -108.5          14.62          155.2
     1.866              -38.82           25.8           4.21          67.76         -7.508         -2.854          48.54          12.78         -108.5          15.26          155.1
     1.914              -38.88          25.73           4.68          67.58         -7.466         -2.731           46.8          13.31         -108.4          16.05          154.9
     1.961              -38.96          25.65          5.265          67.36         -7.413         -2.578          44.63          13.96         -108.3          17.03          154.7
     2.009              -39.06          25.55          6.003          67.08         -7.346         -2.384           41.9          14.78         -108.2          18.27          154.5
     2.057              -39.19          25.41          6.941          66.72         -7.261         -2.139          38.43          15.82         -108.1          19.85          154.2
     2.105              -39.36          25.24          8.141          66.27         -7.153         -1.824          33.99          17.15         -107.9          21.87          153.8
     2.153              -39.57          25.02          9.681          65.69         -7.013         -1.421          28.29          18.86         -107.7          24.46          153.3
     2.201              -39.84          24.74          11.65          64.94         -6.835        -0.9056          21.01          21.05         -107.4          27.77          152.6
     2.249              -40.18          24.39          14.12           64.0         -6.611        -0.2577          11.85           23.8         -107.0          31.94          151.8
     2.296               -40.6          23.97          17.14          62.86         -6.338          0.532         0.6917          27.15         -106.6          37.01          150.8
     2.344              -41.08          23.47          20.63          61.54         -6.022          1.447         -12.24          31.03         -106.1          42.89          149.7
     2.392              -41.61          22.93          24.42           60.1         -5.679          2.438         -26.25          35.24         -105.5          49.26          148.4
      2.44              -42.13           22.4           28.2          58.67         -5.337          3.429         -40.25          39.44         -105.0          55.62          147.2
     2.488              -42.61           21.9          31.69          57.34          -5.02          4.345         -53.19          43.32         -104.5           61.5          146.0
     2.536              -43.03          21.47          34.71           56.2         -4.747          5.134         -64.35          46.67         -104.0          66.57          145.0
     2.583              -43.37          21.12          37.18          55.26         -4.523          5.782          -73.5          49.42         -103.7          70.74          144.2
     2.631              -43.64          20.84          39.15          54.52         -4.345          6.298         -80.78          51.61         -103.4          74.05          143.5
     2.679              -43.85          20.62          40.69          53.93         -4.206          6.701         -86.49          53.32         -103.2          76.64          143.0
     2.727              -44.02          20.45          41.89          53.48         -4.097          7.015         -90.93          54.65         -103.0          78.66          142.6
     2.775              -44.15          20.32          42.83          53.12         -4.012          7.261          -94.4          55.69         -102.9          80.24          142.3
     2.823              -44.25          20.21          43.57          52.84         -3.945          7.454         -97.13          56.51         -102.8          81.48          142.1
      2.87              -44.33          20.13          44.15          52.62         -3.892          7.608          -99.3          57.16         -102.7          82.46          141.9
     2.918               -44.4          20.06          44.62          52.44          -3.85          7.731         -101.0          57.69         -102.6          83.25          141.7
     2.966              -44.45          20.01           45.0           52.3         -3.815           7.83         -102.4          58.11         -102.6          83.89          141.6
     3.014              -44.49          19.97          45.31          52.18         -3.787          7.912         -103.6          58.46         -102.5          84.42          141.5
     3.062              -44.53          19.93          45.57          52.08         -3.764          7.979         -104.5          58.74         -102.5          84.85          141.4
